{
  "asset": {
    "generator": "Khronos glTF Blender I/O v1.6.16",
    "version": "2.0"
  },
  "extensionsUsed": [
    "KHR_lights_punctual"
  ],
  "extensionsRequired": [
    "KHR_lights_punctual"
  ],
  "extensions": {
    "KHR_lights_punctual": {
      "lights": [
        {
          "color": [
            1,
            1,
            1
          ],
          "intensity": 1000,
          "type": "point",
          "name": "Light"
        }
      ]
    }
  },
  "scene": 0,
  "scenes": [
    {
      "name": "Scene",
      "nodes": [
        0,
        2,
        4,
        5,
        6,
        7
      ]
    }
  ],
  "nodes": [
    {
      "mesh": 0,
      "name": "Cube",
      "rotation": [
        0.23798231780529022,
        0.7000321745872498,
        -0.05445098504424095,
        0.6710846424102783
      ],
      "scale": [
        0.6507837176322937,
        0.6507837176322937,
        0.6507837772369385
      ],
      "translation": [
        0,
        1.277496337890625,
        3.7134861946105957
      ]
    },
    {
      "extensions": {
        "KHR_lights_punctual": {
          "light": 0
        }
      },
      "name": "Light_Orientation",
      "rotation": [
        -0.7071067690849304,
        0,
        0,
        0.7071067690849304
      ]
    },
    {
      "children": [
        1
      ],
      "name": "Light",
      "rotation": [
        0.16907575726509094,
        0.7558803558349609,
        -0.27217137813568115,
        0.570947527885437
      ],
      "translation": [
        -0.752808690071106,
        3.410325050354004,
        0.2491912841796875
      ]
    },
    {
      "camera": 0,
      "name": "Camera_Orientation",
      "rotation": [
        -0.7071067690849304,
        0,
        0,
        0.7071067690849304
      ]
    },
    {
      "children": [
        3
      ],
      "name": "Camera",
      "rotation": [
        0.483536034822464,
        0.33687159419059753,
        -0.20870360732078552,
        0.7804827094078064
      ],
      "translation": [
        11.52694320678711,
        7.80673360824585,
        10.854670524597168
      ]
    },
    {
      "mesh": 1,
      "name": "Icosphere",
      "scale": [
        2.001889705657959,
        2.001889705657959,
        2.001889705657959
      ],
      "translation": [
        0,
        0,
        -4.242674350738525
      ]
    },
    {
      "mesh": 2,
      "name": "Suzanne",
      "rotation": [
        -0.24943462014198303,
        0.45287349820137024,
        0.006467148661613464,
        0.8559474945068359
      ],
      "scale": [
        1.2303322553634644,
        1.230332374572754,
        1.2303322553634644
      ],
      "translation": [
        -5.0724592208862305,
        0,
        -1.410593867301941
      ]
    },
    {
      "mesh": 3,
      "name": "Torus",
      "rotation": [
        0.12431494146585464,
        0.06767843663692474,
        0.05490816384553909,
        0.988408088684082
      ],
      "scale": [
        1.592760682106018,
        1.592760682106018,
        1.592760682106018
      ],
      "translation": [
        2.903991222381592,
        0,
        1.470339059829712
      ]
    }
  ],
  "cameras": [
    {
      "name": "Camera",
      "perspective": {
        "aspectRatio": 1.7777777777777777,
        "yfov": 0.39959648408210363,
        "zfar": 100,
        "znear": 0.10000000149011612
      },
      "type": "perspective"
    }
  ],
  "materials": [
    {
      "doubleSided": true,
      "name": "Material",
      "pbrMetallicRoughness": {
        "baseColorFactor": [
          0.8000000715255737,
          0.18199720978736877,
          0,
          1
        ],
        "metallicFactor": 0,
        "roughnessFactor": 0.4000000059604645
      }
    },
    {
      "doubleSided": true,
      "name": "Material.002",
      "pbrMetallicRoughness": {
        "baseColorFactor": [
          0.2054774910211563,
          0.8000000715255737,
          0.10360405594110489,
          1
        ],
        "metallicFactor": 0,
        "roughnessFactor": 0.5
      }
    },
    {
      "doubleSided": true,
      "name": "Material.001",
      "pbrMetallicRoughness": {
        "baseColorFactor": [
          0.8000000715255737,
          0.08421353250741959,
          0.4403890371322632,
          1
        ],
        "metallicFactor": 0,
        "roughnessFactor": 0.5
      }
    },
    {
      "doubleSided": true,
      "name": "Material.003",
      "pbrMetallicRoughness": {
        "baseColorFactor": [
          0.015439174138009548,
          0.40864434838294983,
          0.8000000715255737,
          1
        ],
        "metallicFactor": 0,
        "roughnessFactor": 0.5
      }
    }
  ],
  "meshes": [
    {
      "name": "Cube",
      "primitives": [
        {
          "attributes": {
            "POSITION": 0,
            "NORMAL": 1,
            "TEXCOORD_0": 2
          },
          "indices": 3,
          "material": 0
        }
      ]
    },
    {
      "name": "Icosphere",
      "primitives": [
        {
          "attributes": {
            "POSITION": 4,
            "NORMAL": 5,
            "TEXCOORD_0": 6
          },
          "indices": 7,
          "material": 1
        }
      ]
    },
    {
      "name": "Suzanne",
      "primitives": [
        {
          "attributes": {
            "POSITION": 8,
            "NORMAL": 9,
            "TEXCOORD_0": 10
          },
          "indices": 11,
          "material": 2
        }
      ]
    },
    {
      "name": "Torus",
      "primitives": [
        {
          "attributes": {
            "POSITION": 12,
            "NORMAL": 13,
            "TEXCOORD_0": 14
          },
          "indices": 15,
          "material": 3
        }
      ]
    }
  ],
  "accessors": [
    {
      "bufferView": 0,
      "componentType": 5126,
      "count": 24,
      "max": [
        1,
        1,
        1
      ],
      "min": [
        -1,
        -1,
        -1
      ],
      "type": "VEC3"
    },
    {
      "bufferView": 1,
      "componentType": 5126,
      "count": 24,
      "type": "VEC3"
    },
    {
      "bufferView": 2,
      "componentType": 5126,
      "count": 24,
      "type": "VEC2"
    },
    {
      "bufferView": 3,
      "componentType": 5123,
      "count": 36,
      "type": "SCALAR"
    },
    {
      "bufferView": 4,
      "componentType": 5126,
      "count": 240,
      "max": [
        0.9510578513145447,
        1,
        0.9999999403953552
      ],
      "min": [
        -0.9510578513145447,
        -1,
        -0.9999999403953552
      ],
      "type": "VEC3"
    },
    {
      "bufferView": 5,
      "componentType": 5126,
      "count": 240,
      "type": "VEC3"
    },
    {
      "bufferView": 6,
      "componentType": 5126,
      "count": 240,
      "type": "VEC2"
    },
    {
      "bufferView": 7,
      "componentType": 5123,
      "count": 240,
      "type": "SCALAR"
    },
    {
      "bufferView": 8,
      "componentType": 5126,
      "count": 1966,
      "max": [
        1.3671875,
        0.984375,
        0.8515625
      ],
      "min": [
        -1.3671875,
        -0.984375,
        -0.8515625
      ],
      "type": "VEC3"
    },
    {
      "bufferView": 9,
      "componentType": 5126,
      "count": 1966,
      "type": "VEC3"
    },
    {
      "bufferView": 10,
      "componentType": 5126,
      "count": 1966,
      "type": "VEC2"
    },
    {
      "bufferView": 11,
      "componentType": 5123,
      "count": 2904,
      "type": "SCALAR"
    },
    {
      "bufferView": 12,
      "componentType": 5126,
      "count": 637,
      "max": [
        1.25,
        0.25,
        1.25
      ],
      "min": [
        -1.25,
        -0.25,
        -1.25
      ],
      "type": "VEC3"
    },
    {
      "bufferView": 13,
      "componentType": 5126,
      "count": 637,
      "type": "VEC3"
    },
    {
      "bufferView": 14,
      "componentType": 5126,
      "count": 637,
      "type": "VEC2"
    },
    {
      "bufferView": 15,
      "componentType": 5123,
      "count": 3456,
      "type": "SCALAR"
    }
  ],
  "bufferViews": [
    {
      "buffer": 0,
      "byteLength": 288,
      "byteOffset": 0
    },
    {
      "buffer": 0,
      "byteLength": 288,
      "byteOffset": 288
    },
    {
      "buffer": 0,
      "byteLength": 192,
      "byteOffset": 576
    },
    {
      "buffer": 0,
      "byteLength": 72,
      "byteOffset": 768
    },
    {
      "buffer": 0,
      "byteLength": 2880,
      "byteOffset": 840
    },
    {
      "buffer": 0,
      "byteLength": 2880,
      "byteOffset": 3720
    },
    {
      "buffer": 0,
      "byteLength": 1920,
      "byteOffset": 6600
    },
    {
      "buffer": 0,
      "byteLength": 480,
      "byteOffset": 8520
    },
    {
      "buffer": 0,
      "byteLength": 23592,
      "byteOffset": 9000
    },
    {
      "buffer": 0,
      "byteLength": 23592,
      "byteOffset": 32592
    },
    {
      "buffer": 0,
      "byteLength": 15728,
      "byteOffset": 56184
    },
    {
      "buffer": 0,
      "byteLength": 5808,
      "byteOffset": 71912
    },
    {
      "buffer": 0,
      "byteLength": 7644,
      "byteOffset": 77720
    },
    {
      "buffer": 0,
      "byteLength": 7644,
      "byteOffset": 85364
    },
    {
      "buffer": 0,
      "byteLength": 5096,
      "byteOffset": 93008
    },
    {
      "buffer": 0,
      "byteLength": 6912,
      "byteOffset": 98104
    }
  ],
  "buffers": [
    {
      "uri": "scene_data.bin",
      "byteLength": 105016
    }
  ]
}